<svg width="22" height="6" viewBox="0 0 22 6" fill="none" xmlns="http://www.w3.org/2000/svg">
<path fill-rule="evenodd" clip-rule="evenodd" d="M5.67026 2.67218C5.23986 2.67689 4.82869 2.8514 4.52602 3.15784C4.22334 3.46427 4.05359 3.87788 4.05361 4.30888C4.05308 4.65714 4.16407 4.9964 4.37027 5.27684C3.97519 5.50431 3.52722 5.62355 3.07148 5.62254C2.37688 5.62254 1.71072 5.34623 1.21956 4.85441C0.7284 4.36259 0.452469 3.69554 0.452469 3C0.452469 2.30446 0.7284 1.6374 1.21956 1.14558C1.71072 0.653761 2.37688 0.377459 3.07148 0.377459C3.70944 0.377384 4.32549 0.610482 4.80399 1.03299C5.28248 1.4555 5.59051 2.03837 5.67026 2.67218Z" fill="#ED1062"/>
<path d="M5.69049 5.61777C6.41371 5.61777 6.99999 5.03176 6.99999 4.30888C6.99999 3.586 6.41371 3 5.69049 3C4.96727 3 4.38098 3.586 4.38098 4.30888C4.38098 5.03176 4.96727 5.61777 5.69049 5.61777Z" fill="#9E0059"/>
<path fill-rule="evenodd" clip-rule="evenodd" d="M10.1117 1.47961V2.11509H9.74681L9.72777 1.84183H9.29147V3.51792L9.54532 3.56558V3.85154H8.56164V3.56558L8.8155 3.51792V1.84183H8.38236L8.36174 2.10715H8V1.47167L10.1117 1.47961ZM11.1192 3.88491C11.0065 3.89 10.894 3.87095 10.7892 3.82903C10.6844 3.78711 10.5897 3.72329 10.5115 3.64183C10.357 3.47279 10.2749 3.2497 10.2831 3.02065V2.95393C10.2744 2.71934 10.3511 2.48958 10.4988 2.30732C10.5696 2.22356 10.6586 2.15721 10.759 2.11341C10.8594 2.0696 10.9685 2.04952 11.0779 2.05472C11.18 2.04862 11.2821 2.06462 11.3774 2.10164C11.4727 2.13865 11.5588 2.1958 11.6301 2.2692C11.7675 2.43068 11.8379 2.63877 11.8268 2.85066V3.1128H10.7765V3.12392C10.7809 3.22979 10.8218 3.33087 10.8923 3.40988C10.9284 3.44762 10.9721 3.4772 11.0206 3.49666C11.069 3.51611 11.121 3.52498 11.1731 3.52268C11.2615 3.52462 11.3496 3.51392 11.4349 3.49091C11.514 3.46464 11.5905 3.43114 11.6634 3.39082L11.7919 3.68314C11.7066 3.74737 11.6111 3.79678 11.5095 3.8293C11.3832 3.86868 11.2514 3.88746 11.1192 3.88491ZM11.0779 2.4233C11.0376 2.42185 10.9974 2.43019 10.961 2.44762C10.9245 2.46504 10.8928 2.49104 10.8685 2.52339C10.8132 2.60375 10.7809 2.69767 10.7749 2.79506V2.803H11.3667V2.76169C11.3712 2.67563 11.3466 2.59054 11.2969 2.52021C11.271 2.48748 11.2375 2.46156 11.1994 2.44467C11.1612 2.42779 11.1195 2.42045 11.0779 2.4233ZM13.1722 3.85313C13.1595 3.82242 13.1484 3.79223 13.1389 3.76257C13.1291 3.73195 13.1216 3.70062 13.1167 3.66884C13.0593 3.7351 12.9891 3.78913 12.9104 3.82771C12.824 3.86976 12.7288 3.89046 12.6328 3.88808C12.4829 3.89641 12.3356 3.84631 12.2219 3.74828C12.1693 3.69947 12.1278 3.63982 12.1004 3.57346C12.0731 3.50709 12.0604 3.43557 12.0632 3.36381C12.0605 3.28829 12.0773 3.21335 12.1121 3.14627C12.1468 3.07918 12.1983 3.02223 12.2615 2.98093C12.4384 2.88032 12.6407 2.8334 12.8438 2.84589H13.0865V2.66955C13.0889 2.63467 13.0842 2.59967 13.0727 2.56665C13.0613 2.53362 13.0433 2.50324 13.0199 2.47732C12.9596 2.42707 12.8824 2.40204 12.8041 2.40741C12.7548 2.40666 12.7056 2.41308 12.6582 2.42648C12.6223 2.43627 12.5881 2.45125 12.5566 2.47096L12.5249 2.66002H12.1679V2.26443C12.2604 2.20229 12.3607 2.15261 12.4662 2.11668C12.584 2.07583 12.708 2.05541 12.8327 2.05631C13.0227 2.04729 13.2102 2.10332 13.3642 2.21518C13.4324 2.26947 13.4866 2.33936 13.5222 2.41898C13.5578 2.4986 13.5738 2.58562 13.5688 2.67273V3.4782C13.5672 3.50094 13.5672 3.52377 13.5688 3.54651L13.7132 3.56558V3.85154L13.1722 3.85313ZM12.7613 3.53539C12.8281 3.53496 12.8939 3.51862 12.9533 3.48773C13.0077 3.4604 13.0546 3.42001 13.0897 3.37017V3.10168H12.8501C12.7677 3.09588 12.6861 3.12141 12.6217 3.17317C12.597 3.19401 12.5772 3.22006 12.5638 3.24945C12.5504 3.27884 12.5436 3.31084 12.5439 3.34316C12.5424 3.36925 12.5467 3.39536 12.5566 3.41956C12.5665 3.44376 12.5817 3.46542 12.601 3.48296C12.6464 3.519 12.7035 3.53709 12.7613 3.5338V3.53539ZM13.8275 2.37723V2.08808H14.5208L14.5398 2.31844C14.5932 2.23648 14.6663 2.16928 14.7524 2.12303C14.843 2.07432 14.9448 2.05022 15.0475 2.05313C15.1489 2.05036 15.249 2.07623 15.3363 2.1278C15.42 2.18184 15.484 2.26153 15.5187 2.35499C15.5693 2.26427 15.6419 2.18777 15.7298 2.13257C15.8225 2.0783 15.9285 2.05081 16.036 2.05313C16.1133 2.05044 16.1903 2.0655 16.261 2.09716C16.3317 2.12883 16.3942 2.17626 16.4437 2.23583C16.5585 2.39459 16.6145 2.58834 16.6024 2.78393V3.51792L16.8308 3.56558V3.85154H15.9186V3.56558L16.1232 3.51792V2.78235C16.1331 2.685 16.1102 2.58713 16.0582 2.50432C16.034 2.47739 16.004 2.45636 15.9704 2.44287C15.9369 2.42937 15.9007 2.42376 15.8646 2.42648C15.8051 2.42427 15.7461 2.4389 15.6945 2.46868C15.6429 2.49846 15.6006 2.5422 15.5727 2.59488C15.5727 2.61553 15.5727 2.63301 15.5727 2.6489C15.5735 2.66371 15.5735 2.67856 15.5727 2.69338V3.51792L15.7647 3.56558V3.85154H14.9079V3.56558L15.0999 3.51792V2.78235C15.1084 2.6856 15.0856 2.58869 15.0348 2.50591C15.0102 2.47862 14.9797 2.4573 14.9456 2.44354C14.9115 2.42978 14.8748 2.42394 14.8381 2.42648C14.7799 2.42487 14.7222 2.43741 14.6699 2.46302C14.6222 2.48688 14.5813 2.5224 14.5509 2.56628V3.5195L14.7556 3.56716V3.85313H13.8513V3.56716L14.0813 3.5195V2.42489L13.8275 2.37723ZM17.924 1.4812V1.76717L17.6701 1.81641V3.05401C17.6648 3.1181 17.6733 3.18258 17.6949 3.24314C17.7165 3.30369 17.7508 3.35892 17.7955 3.40512C17.8913 3.48745 18.0152 3.52957 18.1413 3.52268C18.2682 3.52969 18.3929 3.48824 18.4904 3.40671C18.5356 3.36052 18.5704 3.30511 18.5923 3.24424C18.6142 3.18337 18.6227 3.11848 18.6173 3.05401V1.81483L18.365 1.76558V1.47961H19.3471V1.76558L19.0933 1.81483V3.05243C19.0994 3.16911 19.0782 3.28561 19.0314 3.39263C18.9845 3.49966 18.9134 3.59424 18.8236 3.66884C18.622 3.80956 18.3823 3.88501 18.1366 3.88501C17.8909 3.88501 17.6511 3.80956 17.4496 3.66884C17.3615 3.59321 17.2921 3.49823 17.2467 3.39131C17.2012 3.28439 17.1811 3.16842 17.1878 3.05243V1.81483L16.9355 1.76558V1.47961L17.924 1.4812ZM19.4582 2.37564V2.08808H20.1468L20.1706 2.29461C20.2186 2.22217 20.2826 2.16182 20.3578 2.11827C20.4354 2.07551 20.523 2.05413 20.6116 2.05631C20.7123 2.05243 20.8123 2.0745 20.902 2.12039C20.9917 2.16629 21.0682 2.23448 21.1241 2.31844C21.2518 2.51851 21.3144 2.75329 21.3034 2.99047V3.02542C21.3154 3.25126 21.2523 3.47474 21.1241 3.6609C21.0656 3.73849 20.989 3.80061 20.9011 3.84186C20.8132 3.88311 20.7165 3.90225 20.6196 3.89762C20.5348 3.89975 20.4506 3.88236 20.3736 3.84678C20.3 3.81001 20.2368 3.7554 20.1896 3.68791V4.19311L20.4196 4.24236V4.52833H19.4867V4.24236L19.7168 4.19311V2.42489L19.4582 2.37564ZM20.8242 2.98411C20.8294 2.84493 20.8011 2.70655 20.7417 2.58058C20.7196 2.53208 20.6838 2.49116 20.6387 2.46291C20.5935 2.43467 20.5411 2.42034 20.4879 2.42171C20.4239 2.41987 20.3605 2.43465 20.3038 2.46461C20.2533 2.49461 20.2121 2.53806 20.1848 2.59011V3.36699C20.2123 3.41607 20.2537 3.45587 20.3038 3.48137C20.362 3.50984 20.4263 3.52348 20.491 3.52109C20.5414 3.52398 20.5916 3.5129 20.6361 3.48908C20.6806 3.46526 20.7177 3.42961 20.7433 3.38605C20.8026 3.27316 20.8305 3.14644 20.8242 3.01906V2.98411Z" fill="#273043"/>
</svg>
